<?xml version="1.0" standalone="no"?>
<!DOCTYPE svg PUBLIC "-//W3C//DTD SVG 20010904//EN"
 "http://www.w3.org/TR/2001/REC-SVG-20010904/DTD/svg10.dtd">
<svg version="1.0" xmlns="http://www.w3.org/2000/svg"
 width="752.000000pt" height="752.000000pt" viewBox="0 0 752.000000 752.000000"
 preserveAspectRatio="xMidYMid meet">
<metadata>
Created by potrace 1.11, written by Peter Selinger 2001-2013
</metadata>
<g transform="translate(0.000000,752.000000) scale(0.100000,-0.100000)"
fill="#000000" stroke="none">
<path d="M3136 7500 c-57 -18 -142 -70 -159 -96 -4 -7 -13 -19 -20 -26 -24
-25 -54 -85 -77 -154 -41 -124 -84 -194 -137 -222 -10 -6 -46 -13 -79 -17
-114 -11 -168 -17 -186 -21 -10 -2 -26 -6 -35 -8 -47 -10 -136 -62 -177 -103
-46 -45 -76 -99 -97 -177 -21 -75 -5 -225 32 -299 17 -33 19 -97 5 -130 -26
-60 -59 -86 -228 -181 -154 -86 -241 -238 -241 -421 0 -94 9 -133 49 -214 34
-68 101 -148 170 -202 28 -21 133 -73 158 -76 31 -5 34 -19 19 -96 -16 -80
-16 -79 -33 -197 -37 -265 -44 -652 -15 -860 2 -19 7 -57 10 -85 8 -68 17
-121 33 -192 5 -24 8 -43 6 -43 -3 0 0 -9 6 -20 6 -10 12 -32 14 -47 14 -93
99 -321 176 -474 28 -54 50 -103 50 -108 0 -5 -12 -12 -27 -16 -46 -11 -164
-96 -238 -170 -68 -69 -155 -164 -155 -169 0 -12 -305 -327 -362 -373 -70 -57
-224 -135 -293 -149 -11 -2 -42 -8 -70 -14 -79 -16 -316 -13 -345 5 -3 2 -25
6 -50 10 -25 4 -48 9 -52 11 -4 3 -16 7 -25 9 -57 12 -173 56 -261 99 -40 20
-76 36 -81 36 -5 0 -14 7 -21 15 -7 8 -21 15 -31 15 -11 0 -19 4 -19 9 0 12
-76 42 -116 45 -34 4 -94 -34 -94 -60 0 -8 -4 -14 -8 -14 -10 0 -10 -3 -15
-82 -1 -32 0 -58 3 -58 3 0 4 -19 4 -42 -1 -24 4 -62 11 -85 7 -24 11 -43 9
-43 -2 0 3 -19 12 -42 78 -206 182 -343 345 -452 30 -20 59 -39 64 -43 21 -16
192 -92 252 -112 90 -30 201 -54 298 -66 46 -6 224 -5 274 0 66 8 222 45 254
62 15 7 27 11 27 8 0 -4 17 3 38 14 20 11 57 29 82 40 25 11 90 45 144 75 54
31 101 56 103 56 3 0 16 9 30 20 15 11 28 18 31 16 2 -3 -3 -33 -12 -68 -8
-35 -18 -76 -21 -93 -2 -16 -7 -39 -9 -50 -2 -11 -7 -42 -10 -70 -4 -27 -9
-68 -12 -91 -3 -22 -7 -74 -9 -115 -2 -41 -4 -74 -5 -74 -1 0 -3 -18 -5 -40
-12 -105 -18 -132 -44 -183 -28 -55 -81 -104 -151 -139 -26 -12 -60 -55 -62
-77 -1 -12 -2 -30 -3 -41 -1 -11 3 -26 8 -33 5 -6 6 -12 2 -12 -16 0 31 -43
67 -61 124 -63 334 -56 502 18 104 46 237 139 298 208 102 117 160 223 229
418 21 59 38 108 38 110 -2 8 15 64 21 72 4 6 11 26 15 45 4 19 10 40 13 45 4
6 7 16 8 22 9 56 158 383 175 383 5 0 9 9 9 20 0 11 4 20 9 20 5 0 12 8 16 19
3 10 13 28 23 39 9 11 23 29 31 41 21 29 28 19 31 -51 10 -223 -23 -441 -93
-608 -6 -14 -11 -27 -11 -30 -2 -8 -47 -124 -58 -145 -5 -12 -10 -27 -11 -35
-2 -8 -5 -19 -8 -25 -11 -19 -48 -140 -64 -214 -18 -79 -24 -218 -11 -290 22
-130 109 -257 234 -343 58 -40 152 -88 174 -88 9 0 19 -4 22 -9 3 -5 23 -12
43 -16 21 -5 43 -9 48 -11 66 -17 180 -21 250 -9 28 5 53 9 57 9 3 1 10 4 14
8 4 5 15 8 24 8 34 0 65 50 61 101 -1 19 -51 96 -107 167 -115 142 -137 279
-77 472 27 86 71 159 199 330 119 158 224 347 275 490 28 81 39 94 40 50 1
-19 3 -60 5 -90 2 -30 6 -136 9 -235 13 -453 15 -488 40 -662 2 -12 11 -46 21
-75 9 -29 17 -55 16 -58 0 -3 4 -11 10 -17 6 -7 7 -13 2 -13 -5 0 -4 -4 1 -8
6 -4 16 -18 23 -32 29 -56 43 -76 90 -125 54 -56 149 -117 209 -135 48 -14
147 -39 193 -48 47 -9 326 -9 370 1 19 4 49 10 65 13 17 3 39 9 50 14 11 5 32
11 47 14 15 4 45 23 67 44 34 32 39 43 35 67 -7 41 -18 51 -100 92 -41 21 -74
41 -74 45 0 4 -6 8 -14 8 -24 0 -144 124 -175 181 -42 78 -60 161 -54 256 4
75 10 128 13 128 1 0 3 8 5 17 4 24 41 137 56 173 7 17 13 32 14 35 0 3 11 32
24 65 23 62 60 191 66 235 2 14 7 43 10 65 3 22 8 67 11 100 3 32 6 61 8 62 2
2 24 -13 49 -32 25 -19 50 -35 56 -35 5 0 11 -4 13 -9 4 -13 112 -82 183 -118
100 -51 235 -107 235 -98 0 3 8 1 18 -4 18 -9 144 -38 217 -49 51 -8 325 -7
385 1 102 13 297 68 335 94 11 7 27 13 36 13 10 0 19 3 21 8 2 4 33 23 71 42
37 19 67 37 67 41 0 3 12 11 26 18 35 15 127 93 184 155 102 110 194 283 214
406 1 3 4 10 7 15 4 6 6 38 5 71 -1 46 -6 67 -20 83 -23 26 -75 53 -87 45 -5
-3 -17 -7 -26 -9 -10 -2 -70 -22 -133 -44 -63 -22 -128 -43 -145 -46 -16 -3
-41 -8 -55 -11 -14 -2 -34 -6 -45 -9 -36 -7 -169 -18 -230 -18 -191 0 -431 51
-577 124 -32 15 -58 26 -58 24 0 -7 -212 116 -290 168 -146 99 -323 255 -408
362 -37 47 -39 58 -13 93 38 56 138 286 168 387 8 28 17 57 20 65 3 8 7 20 8
25 2 6 13 48 25 95 12 46 23 96 25 110 2 14 7 36 10 50 3 14 8 43 10 65 3 22
7 50 9 62 4 20 12 88 21 188 10 103 4 471 -9 570 -3 22 -8 67 -11 100 -5 55
-11 94 -19 150 -9 52 -19 112 -22 130 -14 67 -14 85 -4 85 41 0 259 128 260
152 0 4 13 21 29 39 85 92 129 253 106 384 -30 174 -106 273 -290 377 -130 74
-182 128 -186 194 -1 16 8 61 20 99 32 98 32 102 35 179 7 178 -93 324 -260
381 -53 18 -63 20 -169 29 -110 10 -138 17 -176 41 -39 25 -78 95 -105 186 -9
30 -29 80 -45 111 -29 58 -102 138 -126 138 -7 0 -13 3 -13 8 0 15 -129 56
-175 55 -47 -1 -116 -13 -135 -23 -11 -6 -20 -8 -20 -5 0 8 -100 -45 -118 -62
-17 -16 -13 -17 -80 11 -116 48 -143 55 -247 60 -67 4 -177 -13 -220 -33 -66
-30 -116 -51 -123 -51 -5 0 -17 8 -28 18 -24 22 -119 67 -160 76 -70 16 -140
14 -198 -4z"/>
</g>
</svg>
