<svg xmlns="http://www.w3.org/2000/svg">
	<symbol id="cuttlebelle" viewBox="0 0 844 844">
		<title>Cuttlebelle logo</title>
		<path fill="#00A887" d="M768.1,577.8c-2.1-1.8-5.9-3.4-11.8-0.8c-31.5,13.8-65.1,15.8-97,5.8c-38-11.8-77.7-42.6-92.8-64.3
			c-0.2-0.2-0.3-0.4-0.5-0.6c5.8-8.1,15-23.4,22.3-46.6c17.9-56.8,10.5-117.7,0.6-160.1c16.5-4.2,31.3-15.8,38-30.7
			c9.4-20.9,2.4-46.6-16-58.5c-2.9-1.9-5.9-3.5-8.8-5.1c-3.1-1.7-6-3.2-8.6-5c-3.7-2.5-8.3-6.5-9.5-11.7c-0.9-3.9,0.4-7.4,2.5-12.8
			l0.1-0.2c2.8-7.1,4-14.6,3.3-21.6c-1-9.9-5.6-19-12.7-24.9c-6.5-5.4-15.3-8.5-26.2-9.3c-1.7-0.1-3.5-0.2-5.1-0.3
			c-6-0.2-11.3-0.4-15.4-3.4c-3.1-2.2-5.5-6-7.7-11.9c-0.6-1.7-1.2-3.6-1.8-5.6c-2.2-6.9-4.6-14.8-10.5-20.6c-8.1-8-18-11.8-28.6-11.1
			c-8.4,0.6-16.9-0.8-20.7-3.3c-0.8-0.5-2.3-2.2-3.7-3.7c-6.1-6.6-16.4-17.7-34.1-17.7c-0.1,0-0.2,0-0.4,0c-0.2,0-0.4,0-0.7,0
			c-0.2,0-0.4,0-0.7,0c-0.1,0-0.2,0-0.4,0c-17.8,0-28,11.1-34.1,17.7c-1.4,1.5-3,3.2-3.7,3.7c-3.7,2.5-12.2,3.9-20.7,3.3
			c-10.6-0.7-20.5,3.1-28.6,11.1c-5.9,5.8-8.3,13.7-10.5,20.6c-0.6,2-1.2,3.9-1.8,5.6c-2.2,5.9-4.6,9.7-7.7,11.9
			c-4.1,2.9-9.3,3.1-15.4,3.4c-1.7,0.1-3.4,0.1-5.1,0.3c-10.9,0.8-19.8,4-26.2,9.3c-7.1,5.9-11.8,15-12.7,24.9
			c-0.7,7,0.5,14.5,3.3,21.6l0.1,0.2c2.1,5.4,3.4,8.9,2.5,12.8c-1.2,5.2-5.8,9.2-9.5,11.7c-2.7,1.8-5.6,3.4-8.6,5
			c-2.9,1.6-5.9,3.2-8.8,5.1c-18.4,11.9-25.4,37.6-16,58.5c7.2,15.9,23.7,28.2,41.6,31.5c-16.8,73.6-9.1,126.6,0.5,158.5
			c6.9,22.7,15.5,38.1,21.2,46.5c-16.1,5.9-27,18.3-35.9,28.4c-2.1,2.4-4.1,4.6-6,6.7c-3.4,3.5-6.7,7.2-9.9,10.8
			c-10.5,11.7-21.4,23.9-34.7,31.5c-14.3,8.3-32.4,11.8-51,10c-12.9-1.3-26.2-4.9-40.7-11.1c-7-3-16.8-8-24.6-12.4
			c-5.9-3.4-10.1-2.4-12.6-1c-6.1,3.3-6.4,11.3-6.5,14C58,616.9,69.5,642.8,87.5,658c11.5,9.7,26.1,17.7,40.9,22.3
			c13.6,4.3,27.5,6.5,41,6.5c9.8,0,19.5-1.1,28.8-3.4c18.6-4.6,35-14.3,50.9-23.7c1.3-0.8,2.6-1.5,3.8-2.3c-3.2,11.8-5.6,24.5-7,38
			c-0.4,3.5-0.6,7-0.8,10.7c-0.8,13.3-1.6,27-9.6,35.2c-1.1,1-6.4,4.8-11.1,7.3c-3.9,2-6.3,6-6.3,10.4c0,4.4,2.4,8.3,6.3,10.4
			c14.9,7.8,34.3,5.1,47.5,0.1c16.2-6.2,30.5-17.6,40.3-32c9.5-14,14.4-30.2,19.1-45.8c1.4-4.6,2.8-9.3,4.3-13.9
			c4.3-12.9,9.2-24,14.9-34c4.5-7.8,9.6-15.3,13-19.5c1.8,7.2,2.9,22.6-1.1,43.4c-2.2,11.5-6.5,22.3-11,33.9
			c-5,12.6-10.1,25.7-12.3,39.6c-2.1,13.4-0.8,25.1,3.7,34.8c4.3,9.3,12.1,17.5,22.5,23.9c9.8,6,24.4,11.5,39.4,11.5
			c5.9,0,11.9-0.9,17.7-2.9c6.4-2.3,7.2-6.9,7.2-8.7c0-2.7-1.2-4.6-1.7-5.5c-2.4-3.9-5.2-7.4-7.9-10.8c-1.9-2.4-3.7-4.7-5.4-7.1
			c-11.6-16.5-6-36-1.7-46.2c3.9-9,9.6-16.4,15.8-24.3c3.8-4.8,7.6-9.8,11.1-15.3c5.8-9.1,16.2-26.9,20.9-44.8c1,7.4,1.6,15.7,2,24.9
			c0.3,7.1,0.4,14.3,0.5,21.3c0.2,14.2,0.4,28.9,1.8,43.3c2,20.7,9.3,37,21,46.9c9.1,7.8,22.2,12.7,40,15c4.8,0.6,9.7,0.9,14.6,0.9
			c9.3,0,18.6-1.1,27.4-3.4c3.9-1,8.1-2.3,11.8-5c1.6-1.1,5.3-3.8,4.9-8.2c-0.3-2.5-1.8-4.6-4.1-5.6c-37.3-16.5-46.2-42.2-28.9-83.5
			c9.2-22,11.6-42.3,12.1-54c1.5,1.2,3.1,2.3,4.7,3.6c3.6,2.8,7.4,5.7,11.3,8.4c22.7,15.7,50.3,23.8,77.8,23.8c19.3,0,38.6-4,56.2-12
			c15.9-7.3,29-17,38.8-28.8c8.4-10.1,14.3-21.9,17-33.9c0.1-0.4,0.2-0.8,0.3-1.3C771.6,591.6,773.8,582.5,768.1,577.8z"/>
		<g>
			<path fill="#007766" d="M577.2,299.8l0.3,0c15.7-0.7,31.4-11.1,37.5-24.7c6.7-14.9,1.7-33.9-11.2-42.3c-2.5-1.6-5.1-3-7.9-4.5
				c-3.2-1.7-6.5-3.5-9.8-5.7c-8-5.4-13.2-12.2-14.9-19.5c-1.9-8,0.8-14.6,3.1-20.5l0.1-0.2c2.1-5.2,2.9-10.6,2.4-15.6
				c-0.6-6.5-3.6-12.4-8.1-16.2c-4.4-3.6-10.7-5.8-18.9-6.4c-1.5-0.1-3-0.2-4.7-0.2c-7.1-0.3-15.2-0.6-22.4-5.8
				c-6.9-5-10.3-12.7-12.3-18c-0.7-2-1.4-4.2-2-6.2c-1.8-5.8-3.7-11.7-7.2-15.2c-3.7-3.7-10-8-18.6-7.4c-9.1,0.6-21.4-0.5-28.8-5.5
				c-2-1.4-3.9-3.4-6-5.7c-5.5-6-12.3-13.3-24.1-13.5c3.9,4.4,117.1,136,96.1,218.1c0.7,0.3,1.5,0.6,2.2,0.8
				C560.9,301,577.1,299.8,577.2,299.8z"/>
			<path fill="#007766" d="M567.7,391.4c2.4,27.9-2.3,56-8.5,83.3c-2.6,11.6-5.7,23.1-10.1,34.2c-4.1,10.2-9.6,18.7-15.9,27.3
				c5.3-4.9,14.3-15.9,17.5-19.9l0.4-0.4c0.1-0.1,14.8-16.2,25.1-49.4c9.4-30.3,16.9-81.4-0.2-153.6c-5.4,0-19.2-1.1-44.4-9.8
				C553.6,321.4,564.4,353.7,567.7,391.4z"/>
		</g>
		<path fill="#06262D" d="M338.5,323.1c-1.9,0-3.7,0.1-5.5,0.3c-9.5-3.4-4.8-18.1-10.1-11.9c-3.8,4.4-2.4,11.2-1.3,14.8
			c-0.8,0.3-1.5,0.7-2.3,1.1c-7-2.5-6.6-13.8-9.5-7.7c-2.2,4.7,0.3,10.2,2.1,13.2c-0.5,0.5-1,1-1.5,1.6c-5.9-1.8-7.9-10.4-9.1-4.6
			c-0.9,4.5,2.2,8.7,4.5,11.1c-0.5,0.9-1,1.8-1.4,2.8c-4.2-1.8-6-7.4-6.6-2.9c-0.5,3.7,2.2,7,4.3,8.9c-3.9,12-4.4,26.6-4.4,38.5
			c0,19.2,2.5,33.8,7.8,44.4c6.7,13.6,18.1,20.8,33,20.8c25.3,0,41-25,41-65.2C379.5,331.5,353.8,323.1,338.5,323.1z M366.5,388.3
			c0,2.5-0.1,5-0.2,7.5c-4-16.7-16.3-28.9-28.6-28.9c-10.9,0-21.8,9.6-26.9,23.5c0-0.7,0-1.4,0-2.1c0-38.1,7.5-52.2,27.7-52.2
			C361.6,336.1,366.5,364.5,366.5,388.3z"/>
		<path fill="#06262D" d="M541.7,349.9c2-1.9,4.8-5.1,4.3-8.9c-0.6-4.5-2.4,1-6.6,2.9c-0.5-1-0.9-1.9-1.4-2.8
			c2.3-2.4,5.4-6.6,4.5-11.1c-1.2-5.9-3.2,2.8-9.1,4.6c-0.5-0.5-1-1.1-1.5-1.6c1.8-3,4.4-8.5,2.1-13.2c-2.9-6.1-2.5,5.1-9.5,7.7
			c-0.7-0.4-1.5-0.8-2.3-1.1c1.1-3.6,2.4-10.4-1.3-14.8c-5.2-6.2-0.5,8.4-10.1,11.9c-1.8-0.2-3.6-0.3-5.5-0.3c-15.3,0-41,8.5-41,65.2
			c0,40.2,15.7,65.2,41,65.2c14.9,0,26.3-7.2,33-20.8c5.2-10.6,7.8-25.2,7.8-44.4C546.2,376.4,545.6,361.9,541.7,349.9z M505.4,336.1
			c20.2,0,27.7,14.2,27.7,52.2c0,0.7,0,1.4,0,2.1c-5.1-13.9-16-23.5-26.9-23.5c-12.3,0-24.5,12.2-28.6,28.9c-0.1-2.5-0.2-5-0.2-7.5
			C477.4,364.5,482.3,336.1,505.4,336.1z"/>
		<path fill="#B2E1D8" d="M433,532.7c0,0-6.1,10.2-15.6,9.1C409.2,540.8,410.1,529.3,433,532.7z"/>
		<g>
			<circle fill="#3BD4AE" cx="227.6" cy="260.4" r="8"/>
			<circle fill="#3BD4AE" cx="249.1" cy="262.9" r="3.5"/>
			<circle fill="#3BD4AE" cx="293.1" cy="235.9" r="9.5"/>
			<circle fill="#3BD4AE" cx="274.6" cy="259.4" r="5"/>
			<circle fill="#3BD4AE" cx="277.1" cy="202.9" r="9.5"/>
			<circle fill="#3BD4AE" cx="369.1" cy="203.9" r="9.5"/>
			<circle fill="#3BD4AE" cx="481.1" cy="230.9" r="9.5"/>
			<path fill="#3BD4AE" d="M420.7,82.2c0,5.3,4.3,9.6,9.6,9.6c4.1,0,7.5-2.5,8.9-6.1c-4.2-5.4-7.7-9.8-10.4-13
				C424.2,73.4,420.7,77.4,420.7,82.2z"/>
			<path fill="#009383" d="M430.3,72.6c-0.5,0-1,0-1.5,0.1c2.6,3.2,6.2,7.6,10.4,13c0.4-1.1,0.7-2.3,0.7-3.5
				C439.9,76.9,435.6,72.6,430.3,72.6z"/>
			<circle fill="#3BD4AE" cx="310.1" cy="165.9" r="9.5"/>
			<circle fill="#3BD4AE" cx="281.6" cy="165.4" r="5"/>
			<circle fill="#3BD4AE" cx="345.6" cy="178.4" r="5"/>
			<circle fill="#3BD4AE" cx="396.1" cy="182.9" r="5.5"/>
			<circle fill="#3BD4AE" cx="348.1" cy="94.9" r="6.5"/>
			<circle fill="#3BD4AE" cx="455.1" cy="118.9" r="6.5"/>
			<circle fill="#3BD4AE" cx="398.1" cy="226.9" r="6.5"/>
			<circle fill="#3BD4AE" cx="298.1" cy="145.9" r="3.5"/>
			<circle fill="#3BD4AE" cx="360.1" cy="109.9" r="4.5"/>
			<circle fill="#3BD4AE" cx="472.1" cy="167.9" r="4.5"/>
			<circle fill="#3BD4AE" cx="457.1" cy="250.9" r="4.5"/>
			<circle fill="#3BD4AE" cx="420.1" cy="100.9" r="4.5"/>
			<circle fill="#3BD4AE" cx="446.1" cy="186.9" r="4.5"/>
			<circle fill="#3BD4AE" cx="383.1" cy="160.9" r="4.5"/>
			<circle fill="#3BD4AE" cx="357.1" cy="241.9" r="4.5"/>
			<circle fill="#009383" cx="549.1" cy="214.9" r="4.5"/>
			<circle fill="#3BD4AE" cx="303.1" cy="266.9" r="4.5"/>
			<circle fill="#3BD4AE" cx="404.1" cy="252.9" r="4.5"/>
			<circle fill="#3BD4AE" cx="330.1" cy="287.9" r="4.5"/>
			<circle fill="#3BD4AE" cx="389.6" cy="99.4" r="3"/>
			<circle fill="#009383" cx="470.6" cy="98.4" r="3"/>
			<circle fill="#3BD4AE" cx="423.1" cy="272.9" r="6.5"/>
			<circle fill="#3BD4AE" cx="310.1" cy="194.9" r="5.5"/>
			<circle fill="#3BD4AE" cx="437.1" cy="152.9" r="7.5"/>
			<circle fill="#3BD4AE" cx="349.6" cy="132.4" r="3"/>
			<circle fill="#3BD4AE" cx="258.1" cy="293.9" r="7.5"/>
			<circle fill="#3BD4AE" cx="333.1" cy="225.9" r="7.5"/>
			<circle fill="#3BD4AE" cx="439.1" cy="222.9" r="7.5"/>
			<circle fill="#3BD4AE" cx="505.1" cy="280.9" r="7.5"/>
			<circle fill="#3BD4AE" cx="491.1" cy="197.9" r="7.5"/>
			<path fill="#3BD4AE" d="M470.2,142.4c0,4,3.2,7.3,7.3,7.3c1.7,0,3.3-0.6,4.6-1.6c-2.5-4.2-5-8.3-7.5-12.3
				C471.9,136.9,470.2,139.4,470.2,142.4z"/>
			<path fill="#009383" d="M484.7,142.4c0-4-3.2-7.3-7.3-7.3c-1.1,0-2.1,0.2-3,0.6c2.5,4,5,8.1,7.5,12.3
				C483.6,146.7,484.7,144.7,484.7,142.4z"/>
			<circle fill="#009383" cx="495.1" cy="98.9" r="7.5"/>
			<circle fill="#009383" cx="502.6" cy="125.4" r="4"/>
			<circle fill="#009383" cx="542.1" cy="142.9" r="7.5"/>
			<circle fill="#009383" cx="544.1" cy="185.9" r="7.5"/>
			<circle fill="#009383" cx="570.1" cy="170.9" r="5.5"/>
			<circle fill="#009383" cx="569.6" cy="202.4" r="5"/>
			<circle fill="#009383" cx="571.6" cy="241.4" r="15"/>
			<circle fill="#3BD4AE" cx="391.6" cy="128.4" r="15"/>
			<circle fill="#3BD4AE" cx="375.6" cy="273.4" r="15"/>
			<circle fill="#009383" cx="605.1" cy="235.9" r="5.5"/>
			<circle fill="#009383" cx="548.1" cy="273.9" r="5.5"/>
			<circle fill="#009383" cx="614.1" cy="277.9" r="5.5"/>
			<circle fill="#009383" cx="591.6" cy="267.4" r="7"/>
			<circle fill="#009383" cx="591.1" cy="294.9" r="7.5"/>
			<path fill="#3BD4AE" d="M514.1,236.7c0,3.9,3,7.1,6.8,7.4c-0.7-4.6-1.7-9.3-2.8-14C515.7,231.3,514.1,233.8,514.1,236.7z"/>
			<path fill="#009383" d="M529,236.7c0-4.1-3.3-7.5-7.5-7.5c-1.3,0-2.4,0.3-3.5,0.9c1.2,4.7,2.1,9.4,2.8,14c0.2,0,0.4,0,0.6,0
				C525.7,244.1,529,240.8,529,236.7z"/>
			<circle fill="#009383" cx="548.6" cy="159.4" r="2"/>
			<circle fill="#009383" cx="504.6" cy="161.4" r="2"/>
			<circle fill="#3BD4AE" cx="352.6" cy="154.4" r="2"/>
			<circle fill="#009383" cx="605.6" cy="253.4" r="2"/>
			<circle fill="#3BD4AE" cx="504.6" cy="256.4" r="2"/>
			<circle fill="#3BD4AE" cx="252.1" cy="241.9" r="1.5"/>
			<circle fill="#3BD4AE" cx="289.1" cy="286.9" r="1.5"/>
			<circle fill="#3BD4AE" cx="430.1" cy="242.9" r="1.5"/>
			<circle fill="#3BD4AE" cx="326.1" cy="203.9" r="1.5"/>
			<circle fill="#3BD4AE" cx="329.1" cy="256.9" r="1.5"/>
			<circle fill="#3BD4AE" cx="423.1" cy="199.9" r="1.5"/>
			<circle fill="#3BD4AE" cx="431.1" cy="123.9" r="1.5"/>
			<circle fill="#009383" cx="476.1" cy="114.9" r="1.5"/>
			<circle fill="#3BD4AE" cx="460.1" cy="209.9" r="1.5"/>
			<circle fill="#3BD4AE" cx="413.1" cy="158.9" r="1.5"/>
			<circle fill="#3BD4AE" cx="477.1" cy="260.9" r="2.5"/>
			<circle fill="#3BD4AE" cx="454.6" cy="280.4" r="4"/>
			<circle fill="#009383" cx="518.1" cy="193.9" r="1.5"/>
			<circle fill="#009383" cx="524.1" cy="144.9" r="1.5"/>
			<circle fill="#3BD4AE" cx="327.1" cy="142.9" r="1.5"/>
			<circle fill="#3BD4AE" cx="407.1" cy="80.9" r="1.5"/>
		</g>
		<path fill="none" d="M414.5,797.3c0,0-0.1-0.1-0.1-0.1l-0.1,0.2C414.4,797.4,414.4,797.3,414.5,797.3z"/>
		<path fill="#007766" d="M352.2,743.1c-1.7,10.8-0.8,20,2.7,27.4c4.1,8.8,11.8,14.8,17.5,18.4c11,6.8,27.7,11.7,41.9,8.5l0.1-0.2
			c-1.4-1.9-2.8-3.7-4.3-5.6c0-0.1-0.1-0.1-0.1-0.2c-18.3-1.2-35.8-8.4-44.1-20.6c-11.4-16.8-0.7-65.1,1.3-73.5c-1.1,3-2.3,6-3.5,8.9
			C358.8,718.8,354.1,730.6,352.2,743.1z"/>
		<path fill="#007766" d="M301.5,730.1c8.4-12.4,12.8-26.9,17.4-42.3c1.4-4.7,2.9-9.5,4.4-14.2c4.6-13.7,9.8-25.6,15.9-36.4
			c0.5-0.8,4.8-8.3,9.7-15.2c6.1-8.7,11.2-14.1,16.7-13.6l0.1-0.2c0,0-29.1,0-46.8,28.3c-17.1,27.4-27,107.2-71.9,124.6
			c7.3-0.1,14.6-1.8,20.2-4C281.1,751.9,293.3,742.3,301.5,730.1z"/>
		<path fill="#007766" d="M457.7,593.1c0.5,0.5,0.8,1,1.1,1.7c0.1,0.3,0.3,0.6,0.4,0.9c12.8,21.9,15.8,50.2,16.7,74.7
			c0.3,7.2,0.4,14.5,0.5,21.6c0.2,13.9,0.4,28.3,1.8,42.2c1.2,12.1,5,28.5,16.5,38.3c7.2,6.1,18.1,10,33.3,12c8,1.1,16.2,1.1,24.2,0.2
			c-16.6-1.6-31.3-6.8-47.2-19.4c-25.9-20.6-12.2-110.4-18.9-148.4c-5.8-33.2-41.3-43.4-50.2-45.5c0.2,0.1,0.4,0.2,0.5,0.3
			C445.4,577.3,452.3,584.7,457.7,593.1z"/>
		<path fill="#007766" d="M576.7,631.9c3.7,2.8,7.1,5.5,10.7,8c35,24.2,82.5,28.4,121.1,10.6c11.3-5.2,21-11.7,28.8-19.4
			c-0.1,0.1-0.3,0.1-0.4,0.2c-31.7,16.3-66.2,20.9-101,12.4c-26.7-6.5-56.2-22.2-77.8-39.2c2.3,5.3,4,11.1,5.1,17.4
			C567.9,625.2,572.4,628.6,576.7,631.9z"/>
		<path fill="#007766" d="M95.9,648c10.3,8.6,23.2,15.7,36.4,19.9c21.3,6.7,43,7.7,62.8,2.8c16.7-4.1,31.6-12.9,47.4-22.3
			c5.4-3.2,10.9-6.4,16.5-9.5c4.3-11,9.4-21,15.5-30.1c12.7-19,29.4-33.6,48.1-42.5c-29.7-0.6-44.5,22.1-58.1,36.4
			c-14.4,15.2-27.7,32.9-46.1,43.5c-16.4,9.5-36.1,12.7-54.9,10.8c-14.7-1.4-29-5.8-42.6-11.6c-7.4-3.2-17.5-8.3-25.2-12.7
			c-6-3.5-8.5-0.3-9.2,5.3C89.3,641.8,92.5,645.1,95.9,648z"/>
		<g>

				<ellipse transform="matrix(0.8713 -0.4907 0.4907 0.8713 -145.4859 221.0113)" fill="#B2E1D8" cx="348.6" cy="387.9" rx="5.5" ry="10.5"/>
		</g>
		<ellipse transform="matrix(0.8713 -0.4907 0.4907 0.8713 -123.6087 304.4359)" fill="#B2E1D8" cx="518.6" cy="387.9" rx="5.5" ry="10.5"/>
		<path fill="#3BD4AE" d="M671.4,611.6c10.8,1.5,21.8,1.9,32.8,1.4c1.4-0.1,2.6,1,2.7,2.5c0.1,1.4-0.9,2.5-2.3,2.7
			c-11.2,1.3-22.6,1.6-34,0.8c-2-0.2-3.5-1.9-3.4-3.9s1.9-3.5,3.9-3.4C671.2,611.6,671.3,611.6,671.4,611.6z"/>
		<path fill="#3BD4AE" d="M584.1,573.1l0.8,0.8c0.3,0.3,0.6,0.5,0.9,0.8c0.6,0.5,1.3,1.1,1.9,1.6c1.3,1.1,2.6,2.1,4,3.1
			c2.7,2,5.5,4,8.4,5.9c2.8,1.9,5.8,3.6,8.7,5.3l4.5,2.5l4.6,2.3c6.2,3,12.4,5.7,18.9,7.9c3.2,1.2,6.5,2.1,9.8,3.1
			c1.6,0.5,3.3,0.9,5,1.3l5,1.2l0.2,0c2.1,0.5,3.4,2.6,2.8,4.7c-0.5,2.1-2.6,3.3-4.6,2.9l-5.2-1.2c-1.7-0.4-3.5-0.7-5.2-1.3
			c-3.5-1-6.9-1.9-10.3-3.1c-6.8-2.2-13.5-4.9-20-7.9l-4.9-2.3l-4.8-2.5c-3.1-1.7-6.3-3.5-9.3-5.4c-3.1-1.9-6-3.9-9-6
			c-1.5-1.1-2.9-2.1-4.3-3.3c-0.7-0.6-1.4-1.1-2.1-1.7c-0.4-0.3-0.7-0.6-1.1-0.9c-0.4-0.3-0.7-0.6-1.1-1c-1.9-1.8-2-4.7-0.2-6.6
			c1.8-1.9,4.7-2,6.6-0.3L584.1,573.1z"/>
		<path fill="#3BD4AE" d="M538.8,646.4l-1.2,5.4l-0.6,2.7l-0.7,2.6c-1,3.5-2.1,6.9-3.1,10.2c-2.1,6.7-4.2,13.3-5.5,20.1l0,0
			c-0.2,1.3-1.5,2.2-2.8,1.9c-1.3-0.2-2.1-1.4-2-2.7c1-7.2,2.8-14.2,4.6-21c0.9-3.4,1.8-6.8,2.6-10.2l0.6-2.5l0.4-2.5l0.9-5l0.1-0.3
			c0.3-1.9,2.1-3.1,3.9-2.8c1.9,0.3,3.1,2.1,2.8,3.9C538.8,646.3,538.8,646.3,538.8,646.4z"/>
		<path fill="#3BD4AE" d="M500.5,592.2c5.2,0.7,10.4,2.1,15.3,4.3c4.9,2.2,9.5,5.3,13.3,9.3c3.7,4,6.7,8.8,8.4,13.9
			c1.8,5.1,2.4,10.4,2.4,15.6c0,2.1-1.7,3.7-3.8,3.7c-2,0-3.6-1.6-3.7-3.6l0,0c-0.2-4.5-0.9-8.9-2.5-12.9c-1.6-4-4-7.6-7-10.5
			c-3.1-2.9-6.7-5.2-10.8-6.8c-4-1.7-8.4-2.5-12.7-3l-0.1,0c-2.8-0.3-4.8-2.7-4.5-5.5c0.3-2.8,2.7-4.8,5.5-4.5
			C500.4,592.2,500.5,592.2,500.5,592.2z"/>
		<path fill="#3BD4AE" d="M435.4,640.4c-1.3,4.6-3,9-5.2,13.1c-0.6,1.2-2.1,1.7-3.4,1.1c-1.2-0.6-1.7-2-1.2-3.2l0,0
			c1.6-4,2.9-8.2,3.6-12.4c0.3-1.7,1.9-2.9,3.6-2.6s2.9,1.9,2.6,3.6C435.5,640.2,435.5,640.3,435.4,640.4L435.4,640.4z"/>
		<path fill="#3BD4AE" d="M420,591.5c0.3,0.2,0.4,0.4,0.6,0.5c0.2,0.2,0.4,0.3,0.5,0.5c0.3,0.3,0.7,0.6,1,0.9c0.7,0.6,1.3,1.3,1.9,1.9
			c1.2,1.3,2.3,2.6,3.4,4c2.1,2.8,3.9,5.8,5.3,9c1.4,3.2,2.6,6.5,3.2,9.9c0.8,3.4,1,6.9,1,10.3c0,1.9-1.5,3.4-3.3,3.4
			c-1.8,0-3.3-1.4-3.4-3.1l0-0.2c-0.2-3-0.5-5.9-1.3-8.7c-0.7-2.9-1.8-5.6-3.1-8.2c-1.3-2.6-2.9-5.1-4.8-7.3c-0.9-1.1-1.9-2.2-2.9-3.2
			c-0.5-0.5-1-1-1.6-1.5c-0.3-0.2-0.5-0.5-0.8-0.7c-0.1-0.1-0.3-0.2-0.4-0.3l-0.3-0.2l-0.1-0.1c-1.9-1.4-2.3-4.1-0.9-6
			S418.1,590,420,591.5C420,591.5,420,591.5,420,591.5z"/>
		<path fill="#3BD4AE" d="M291.2,654.8c-2.9,8.8-5,18-6.5,27.2c-0.2,1.4-1.6,2.4-3,2.2c-1.4-0.2-2.4-1.5-2.2-2.9
			c1.2-9.5,3-19,5.6-28.4c0.5-1.7,2.2-2.7,3.9-2.2c1.7,0.5,2.7,2.2,2.2,3.9C291.2,654.7,291.2,654.8,291.2,654.8z"/>
		<path fill="#3BD4AE" d="M318.9,608.3c-0.2,0.1-0.5,0.4-0.8,0.7c-0.3,0.2-0.6,0.5-0.9,0.8c-0.6,0.6-1.2,1.1-1.8,1.7
			c-1.2,1.2-2.3,2.5-3.4,3.8c-2.2,2.6-4.3,5.4-6.2,8.3c-1.9,2.9-3.7,5.9-5.4,9c-0.9,1.5-1.6,3.1-2.4,4.7c-0.8,1.6-1.5,3.2-2.2,4.8
			l-0.1,0.1c-0.7,1.5-2.5,2.2-4,1.5c-1.5-0.7-2.1-2.4-1.5-3.9c0.7-1.7,1.4-3.4,2.1-5.1c0.8-1.7,1.5-3.4,2.3-5c1.6-3.3,3.4-6.6,5.3-9.8
			c1.9-3.2,4-6.3,6.3-9.2c1.2-1.5,2.4-2.9,3.6-4.4c0.6-0.7,1.3-1.4,2-2.1c0.4-0.3,0.7-0.7,1.1-1c0.4-0.4,0.7-0.7,1.2-1.1
			c1.7-1.4,4.2-1.2,5.6,0.5c1.4,1.7,1.2,4.2-0.5,5.6C319,608.2,319,608.2,318.9,608.3L318.9,608.3z"/>
		<path fill="#3BD4AE" d="M154,638.9c-7.2-0.5-14.5-1.3-21.7-3c-1.2-0.3-2-1.5-1.7-2.8c0.3-1.2,1.5-2,2.7-1.7l0,0
			c6.8,1.3,13.9,1.8,21,2c1.5,0,2.7,1.3,2.7,2.9c0,1.5-1.3,2.7-2.9,2.7C154,638.9,154,638.9,154,638.9z"/>
		<path fill="#3BD4AE" d="M213.7,626.3c-7,4.1-14.6,7.2-22.4,9.2c-7.8,2.1-15.8,3.1-23.8,3.3c-1.5,0-2.8-1.2-2.8-2.7
			c0-1.5,1.1-2.7,2.5-2.8l0,0c7.6-0.6,15-2,22.2-4.3c7.1-2.3,13.9-5.5,20.2-9.6c1.8-1.2,4.3-0.7,5.5,1.2c1.2,1.8,0.7,4.3-1.2,5.5
			C213.9,626.2,213.8,626.3,213.7,626.3L213.7,626.3z"/>
		<path fill="#3BD4AE" d="M278.5,567.8c-5.1,2.9-9.9,6.5-14.3,10.6c-2.2,2-4.4,4.2-6.4,6.4c-1,1.1-2,2.3-3,3.4l-1.5,1.8l-1.5,1.8
			c-4.1,5.1-8.6,9.8-13.2,14.3c-4.6,4.5-9.5,8.8-14.6,12.8c-1.7,1.3-4,1-5.3-0.7c-1.3-1.6-1-3.9,0.5-5.2l0,0c4.7-4,9.2-8.2,13.5-12.7
			c4.3-4.5,8.4-9.1,12.1-14l1.4-1.9l1.5-1.9c1-1.3,2.1-2.5,3.1-3.8c2.1-2.5,4.4-4.9,6.7-7.2c4.7-4.6,9.9-8.9,15.7-12.5
			c2.4-1.5,5.6-0.7,7.1,1.7c1.5,2.4,0.7,5.6-1.7,7.1C278.6,567.8,278.5,567.8,278.5,567.8z"/>
		<path fill="#06262D" d="M440.7,490c-4.8-1.7-6.4,1.6-2.1,3.4c0,0,2.1,0.9,5,2.7c-18.4,9.4-45.5,3.2-45.5,3.2
			c-4.8-1.1-7.3,2.4-1.9,4.2c3.6,1.2,12.8,2.4,12.8,2.4c-2.4,4-4.4,6.2-9.4,21c-5,14.8,19,23.1,31.1,13.4c9.9-8.7,17.1-33.6,18.7-39.5
			c1.4,1.3,2.8,2.9,4.1,4.6c4.3,5.8,6.7,1.9,5-0.5C457,502.6,452.1,494,440.7,490z"/>
		<path fill="#06262D" d="M768.1,577.8c-2.1-1.8-5.9-3.4-11.8-0.8c-31.5,13.8-65.1,15.8-97,5.8c-38-11.8-77.7-42.6-92.8-64.3
			c-0.2-0.2-0.3-0.4-0.5-0.6c5.8-8.1,15-23.4,22.3-46.6c17.9-56.8,10.5-117.7,0.6-160.1c16.5-4.2,31.3-15.8,38-30.7
			c9.4-20.9,2.4-46.6-16-58.5c-2.9-1.9-5.9-3.5-8.8-5.1c-3.1-1.7-6-3.2-8.6-5c-3.7-2.5-8.3-6.5-9.5-11.7c-0.9-3.9,0.4-7.4,2.5-12.8
			l0.1-0.2c2.8-7.1,4-14.6,3.3-21.6c-1-9.9-5.6-19-12.7-24.9c-6.5-5.4-15.3-8.5-26.2-9.3c-1.7-0.1-3.5-0.2-5.1-0.3
			c-6-0.2-11.3-0.4-15.4-3.4c-3.1-2.2-5.5-6-7.7-11.9c-0.6-1.7-1.2-3.6-1.8-5.6c-2.2-6.9-4.6-14.8-10.5-20.6c-8.1-8-18-11.8-28.6-11.1
			c-8.4,0.6-16.9-0.8-20.7-3.3c-0.8-0.5-2.3-2.2-3.7-3.7c-6.1-6.6-16.4-17.7-34.1-17.7c-0.1,0-0.2,0-0.4,0c-0.2,0-0.4,0-0.7,0
			c-0.2,0-0.4,0-0.7,0c-0.1,0-0.2,0-0.4,0c-17.8,0-28,11.1-34.1,17.7c-1.4,1.5-3,3.2-3.7,3.7c-3.7,2.5-12.2,3.9-20.7,3.3
			c-10.6-0.7-20.5,3.1-28.6,11.1c-5.9,5.8-8.3,13.7-10.5,20.6c-0.6,2-1.2,3.9-1.8,5.6c-2.2,5.9-4.6,9.7-7.7,11.9
			c-4.1,2.9-9.3,3.1-15.4,3.4c-1.7,0.1-3.4,0.1-5.1,0.3c-10.9,0.8-19.8,4-26.2,9.3c-7.1,5.9-11.8,15-12.7,24.9
			c-0.7,7,0.5,14.5,3.3,21.6l0.1,0.2c2.1,5.4,3.4,8.9,2.5,12.8c-1.2,5.2-5.8,9.2-9.5,11.7c-2.7,1.8-5.6,3.4-8.6,5
			c-2.9,1.6-5.9,3.2-8.8,5.1c-18.4,11.9-25.4,37.6-16,58.5c7.2,15.9,23.7,28.2,41.6,31.5c-16.8,73.6-9.1,126.6,0.5,158.5
			c6.9,22.7,15.5,38.1,21.2,46.5c-16.1,5.9-27,18.3-35.9,28.4c-2.1,2.4-4.1,4.6-6,6.7c-3.4,3.5-6.7,7.2-9.9,10.8
			c-10.5,11.7-21.4,23.9-34.7,31.5c-14.3,8.3-32.4,11.8-51,10c-12.9-1.3-26.2-4.9-40.7-11.1c-7-3-16.8-8-24.6-12.4
			c-5.9-3.4-10.1-2.4-12.6-1c-6.1,3.3-6.4,11.3-6.5,14C58,616.9,69.5,642.8,87.5,658c11.5,9.7,26.1,17.7,40.9,22.3
			c13.6,4.3,27.5,6.5,41,6.5c9.8,0,19.5-1.1,28.8-3.4c18.6-4.6,35-14.3,50.9-23.7c1.3-0.8,2.6-1.5,3.8-2.3c-3.2,11.8-5.6,24.5-7,38
			c-0.4,3.5-0.6,7-0.8,10.7c-0.8,13.3-1.6,27-9.6,35.2c-1.1,1-6.4,4.8-11.1,7.3c-3.9,2-6.3,6-6.3,10.4c0,4.4,2.4,8.3,6.3,10.4
			c14.9,7.8,34.3,5.1,47.5,0.1c16.2-6.2,30.5-17.6,40.3-32c9.5-14,14.4-30.2,19.1-45.8c1.4-4.6,2.8-9.3,4.3-13.9
			c4.3-12.9,9.2-24,14.9-34c4.5-7.8,9.6-15.3,13-19.5c1.8,7.2,2.9,22.6-1.1,43.4c-2.2,11.5-6.5,22.3-11,33.9
			c-5,12.6-10.1,25.7-12.3,39.6c-2.1,13.4-0.8,25.1,3.7,34.8c4.3,9.3,12.1,17.5,22.5,23.9c9.8,6,24.4,11.5,39.4,11.5
			c5.9,0,11.9-0.9,17.7-2.9c6.4-2.3,7.2-6.9,7.2-8.7c0-2.7-1.2-4.6-1.7-5.5c-2.4-3.9-5.2-7.4-7.9-10.8c-1.9-2.4-3.7-4.7-5.4-7.1
			c-11.6-16.5-6-36-1.7-46.2c3.9-9,9.6-16.4,15.8-24.3c3.8-4.8,7.6-9.8,11.1-15.3c5.8-9.1,16.2-26.9,20.9-44.8c1,7.4,1.6,15.7,2,24.9
			c0.3,7.1,0.4,14.3,0.5,21.3c0.2,14.2,0.4,28.9,1.8,43.3c2,20.7,9.3,37,21,46.9c9.1,7.8,22.2,12.7,40,15c4.8,0.6,9.7,0.9,14.6,0.9
			c9.3,0,18.6-1.1,27.4-3.4c3.9-1,8.1-2.3,11.8-5c1.6-1.1,5.3-3.8,4.9-8.2c-0.3-2.5-1.8-4.6-4.1-5.6c-37.3-16.5-46.2-42.2-28.9-83.5
			c9.2-22,11.6-42.3,12.1-54c1.5,1.2,3.1,2.3,4.7,3.6c3.6,2.8,7.4,5.7,11.3,8.4c22.7,15.7,50.3,23.8,77.8,23.8c19.3,0,38.6-4,56.2-12
			c15.9-7.3,29-17,38.8-28.8c8.4-10.1,14.3-21.9,17-33.9c0.1-0.4,0.2-0.8,0.3-1.3C771.6,591.6,773.8,582.5,768.1,577.8z M229.5,275.1
			c-6.7-14.9-1.7-33.9,11.2-42.3c2.5-1.6,5.1-3,7.9-4.5c3.2-1.7,6.5-3.5,9.8-5.7c8-5.4,13.2-12.2,14.9-19.5c1.9-8-0.8-14.6-3.1-20.5
			l-0.1-0.2c-2.1-5.2-2.9-10.6-2.4-15.6c0.6-6.5,3.6-12.4,8.1-16.2c4.4-3.6,10.7-5.8,18.9-6.4c1.5-0.1,3-0.2,4.7-0.2
			c7.1-0.3,15.2-0.6,22.4-5.8c6.9-5,10.3-12.7,12.3-18c0.7-2,1.4-4.2,2-6.2c1.8-5.8,3.7-11.7,7.2-15.2c3.7-3.7,10-7.9,18.6-7.4
			c9.1,0.6,21.4-0.5,28.8-5.5c2-1.4,3.9-3.4,6-5.7c5.6-6,12.5-13.5,24.6-13.5c0.1,0,0.2,0,0.3,0c0.2,0,0.5,0,0.7,0c0.2,0,0.5,0,0.7,0
			c0.1,0,0.2,0,0.3,0c12.1,0,19,7.5,24.6,13.5c2.1,2.3,4,4.3,6,5.7c7.4,5,19.7,6.1,28.8,5.5c8.6-0.6,14.9,3.7,18.6,7.4
			c3.5,3.5,5.4,9.5,7.2,15.2c0.6,2.1,1.3,4.2,2,6.2c2,5.3,5.4,13,12.3,18c7.3,5.2,15.3,5.5,22.4,5.8c1.6,0.1,3.1,0.1,4.7,0.2
			c8.2,0.6,14.5,2.8,18.9,6.4c4.5,3.8,7.5,9.6,8.1,16.2c0.5,5-0.4,10.3-2.4,15.6l-0.1,0.2c-2.3,5.9-4.9,12.5-3.1,20.5
			c1.7,7.3,6.8,14.1,14.9,19.5c3.2,2.2,6.5,4,9.8,5.7c2.8,1.5,5.4,2.9,7.9,4.5c12.9,8.4,17.9,27.4,11.2,42.3
			c-6.1,13.6-21.9,23.9-37.5,24.7l-0.3,0c-0.2,0-16.3,1.2-55.1-14.2c-29.3-11.5-51.3-6.9-70.8-2.7c-9.5,2-18.4,3.9-27.7,3.9
			c-0.5,0-0.9,0.1-1.3,0.1c-0.4-0.1-0.9-0.1-1.3-0.1c-9.3,0-18.2-1.9-27.7-3.9c-19.5-4.1-41.5-8.8-70.8,2.7
			c-38.8,15.3-55,14.2-55.1,14.2l-0.4,0C251.4,299,235.6,288.7,229.5,275.1z M757.4,595.3c-0.1,0.5-0.2,1-0.3,1.4
			c-2.3,10.1-7.2,19.9-14.3,28.5c-1.7,2-3.5,4-5.4,5.9c-7.8,7.7-17.4,14.2-28.8,19.4c-38.6,17.7-86.2,13.5-121.1-10.6
			c-3.6-2.5-7.1-5.2-10.7-8c-4.3-3.3-8.8-6.7-13.5-9.9c-1.1-6.2-2.8-12.1-5.1-17.4c-2.4-5.6-5.5-10.7-9.1-15
			c-12.8-15.3-35-23.7-59.4-22.5c-3.6,0.2-6.4,3.2-6.2,6.8c0.2,3.6,3.2,6.4,6.8,6.2c20.3-1,38.5,5.7,48.8,17.9
			c5.8,6.9,9.8,16.4,11.6,27.6c0,0.8,0.1,1.6,0.3,2.4c0.1,0.4,0.1,0.9,0.2,1.3c0.1,1.9,1.3,28.5-11.1,58.3c-9.7,23.2-12,42.4-6.9,58.7
			c4.5,14.6,15.1,26.7,31.5,36.2c-4,1-8.2,1.7-12.3,2.2c-8,0.9-16.2,0.9-24.2-0.2c-15.2-2-26.1-5.9-33.3-12
			c-11.5-9.8-15.3-26.2-16.5-38.3c-1.4-13.9-1.6-28.3-1.8-42.2c-0.1-7.1-0.2-14.4-0.5-21.6c-0.9-24.5-3.9-52.7-16.7-74.7
			c-0.1-0.3-0.3-0.6-0.4-0.9c-0.3-0.6-0.7-1.2-1.1-1.7c-5.4-8.4-12.3-15.8-21.2-21.5c-0.2-0.1-0.4-0.2-0.5-0.3
			c-2.9-1.5-6.6-0.6-8.4,2.3c-1.9,3-1,7,2,9c5.9,3.8,12.2,9.1,17.8,18.2c5.2,11.1,5.7,24.1,1.4,40.9c-4.2,16.4-14,33.4-19.5,42
			c-3.2,5-6.7,9.5-10.4,14.3c-6.4,8.2-12.9,16.6-17.5,27.2c-9.2,21.5-8.1,42.9,3,58.8c1.8,2.6,3.8,5.1,5.7,7.5c0,0.1,0.1,0.1,0.1,0.2
			c1.5,1.9,3,3.8,4.3,5.6c0,0,0.1,0.1,0.1,0.1c-0.1,0-0.1,0-0.2,0c-14.2,3.2-30.9-1.7-41.9-8.5c-5.7-3.5-13.4-9.6-17.5-18.4
			c-3.4-7.4-4.3-16.6-2.7-27.4c1.9-12.5,6.6-24.3,11.5-36.9c1.2-2.9,2.3-5.9,3.5-8.9c3.3-8.8,6.4-17.8,8.2-27.2
			c2.7-14.1,3.6-28.2,2.4-39.6c-0.5-4.6-1.9-18.8-9.8-21.6c-0.7-0.3-1.5-0.4-2.2-0.5c-5.5-0.4-10.6,4.9-16.7,13.6
			c-4.9,6.9-9.2,14.4-9.7,15.2c-6.2,10.8-11.4,22.7-15.9,36.4c-1.6,4.7-3,9.5-4.4,14.2c-4.6,15.3-9,29.8-17.4,42.3
			c-8.3,12.2-20.4,21.9-34.2,27.2c-5.6,2.1-12.9,3.9-20.2,4c-5,0.1-10-0.6-14.4-2.4c5.2-3,10.6-6.9,12.1-8.5
			c11.5-11.7,12.5-28.6,13.3-43.6c0.2-3.6,0.4-6.9,0.7-10.1c3.4-32.3,12.3-59.4,26.4-80.6c16.7-25,41.2-41.6,67-45.5
			c3.6-0.5,6-3.8,5.5-7.4c-0.5-3.5-3.8-6-7.4-5.5c-9.6,1.4-18.9,4.4-27.8,8.6c-18.6,8.9-35.4,23.5-48.1,42.5
			c-6.1,9.1-11.2,19.1-15.5,30.1c-5.6,3.1-11.1,6.3-16.5,9.5c-15.8,9.3-30.7,18.2-47.4,22.3c-19.8,4.9-41.5,3.9-62.8-2.8
			c-13.2-4.2-26.2-11.2-36.4-19.9c-3.4-2.9-6.6-6.3-9.4-9.9c-9.6-12.5-15.2-28.9-14.6-43.9c0-0.8,0.1-1.4,0.2-1.9
			c8.1,4.7,18.1,9.6,25.4,12.8c15.7,6.7,30.3,10.6,44.5,12.1c21.2,2.1,42.1-2.1,58.8-11.7c15.1-8.7,26.7-21.6,37.9-34.1
			c3.2-3.5,6.4-7.1,9.6-10.6c2.1-2.2,4.2-4.5,6.3-7c13.4-15.1,28.5-32.3,57.9-26c3.5,0.7,7-1.5,7.7-5c0.7-3.5-1.5-7-5-7.7
			c-7.6-1.6-14.5-1.9-20.7-1.3c-9.3-12.3-51.2-76.6-22.2-201.1c8.5-0.6,25.8-3.5,54.9-15c25.6-10.1,44.8-6,63.3-2.1
			c9.7,2.1,19.7,4.2,30.3,4.2c0,0,0,0,0,0c0.5,0,0.9,0,1.3-0.1c0.4,0.1,0.9,0.1,1.3,0.1c0,0,0,0,0,0c10.6,0,20.6-2.2,30.3-4.2
			c18.5-3.9,37.7-8,63.3,2.1c34.4,13.6,52.3,15.1,58.7,15.1c17.1,72.2,9.6,123.3,0.2,153.6c-10.3,33.2-25,49.2-25.1,49.4l-0.4,0.4
			c-3.4,4.3-13.4,16.5-18.5,20.9c-2.7,2.3-3.1,6.4-0.8,9.2c1.3,1.5,3.1,2.3,5,2.3c1.5,0,3-0.5,4.2-1.5c5-4.2,12.7-13.3,17.1-18.7
			c19.8,26.7,62.1,55.7,97.8,66.8c34,10.6,69.5,8.8,103-5C758.2,592.1,757.7,594.2,757.4,595.3z"/>
	</symbol>
</svg>
